<?xml version="1.0" standalone="no"?>
<!DOCTYPE svg PUBLIC "-//W3C//DTD SVG 20010904//EN"
 "http://www.w3.org/TR/2001/REC-SVG-20010904/DTD/svg10.dtd">
<svg version="1.0" xmlns="http://www.w3.org/2000/svg"
 width="1024.000000pt" height="1024.000000pt" viewBox="0 0 1024.000000 1024.000000"
 preserveAspectRatio="xMidYMid meet">

<g transform="translate(0.000000,1024.000000) scale(0.100000,-0.100000)"
fill="#000000" stroke="none">
<path d="M0 5120 l0 -5120 5120 0 5120 0 0 5120 0 5120 -5120 0 -5120 0 0
-5120z m4291 4290 c46 -25 49 -48 49 -405 0 -321 -1 -339 -21 -386 -23 -54
-62 -87 -184 -156 -409 -235 -535 -304 -563 -309 -49 -9 -79 8 -91 53 -15 52
-14 646 0 715 16 73 71 124 239 219 74 42 196 111 270 155 224 130 251 140
301 114z m1154 -34 c19 -8 43 -23 54 -33 31 -29 142 -84 154 -76 7 3 9 2 4 -2
-9 -10 19 -26 278 -163 110 -58 227 -120 260 -137 331 -178 485 -260 510 -270
17 -7 62 -31 100 -53 70 -39 150 -82 380 -202 66 -34 134 -70 150 -80 17 -10
89 -48 160 -85 72 -37 164 -87 205 -110 41 -23 137 -74 212 -113 76 -40 159
-85 185 -100 26 -16 122 -67 213 -114 91 -47 194 -101 230 -120 36 -20 90 -49
120 -65 279 -151 360 -197 350 -203 -6 -4 2 -7 17 -7 15 -1 57 -17 92 -36 60
-33 62 -35 30 -32 -19 2 -51 11 -72 21 -32 15 -35 20 -20 25 13 6 10 8 -13 8
-27 1 -169 70 -344 167 -25 14 -155 83 -290 153 -209 109 -672 356 -875 466
-33 18 -179 94 -325 170 -517 268 -538 279 -1005 527 -787 419 -796 423 -864
414 -99 -13 -153 -77 -204 -239 -82 -259 -247 -798 -268 -877 -22 -83 -32
-100 -56 -100 -8 0 -7 15 4 53 8 28 17 61 20 72 3 11 35 117 71 235 35 118 68
229 72 245 28 108 143 472 161 507 40 81 110 137 196 157 55 13 70 13 108 -3z
m355 -335 c195 -104 418 -221 495 -261 77 -40 158 -83 180 -95 22 -13 220
-116 440 -230 220 -114 472 -246 560 -293 88 -47 259 -138 380 -202 121 -65
274 -146 340 -180 66 -35 143 -76 170 -91 28 -14 246 -131 485 -259 239 -127
448 -244 463 -258 67 -63 97 -155 77 -233 -30 -117 -317 -969 -331 -983 -5 -6
-9 -2 -9 11 0 12 5 25 10 28 6 3 10 11 10 18 0 6 -7 2 -15 -10 -11 -15 -14
-35 -10 -65 4 -31 3 -38 -4 -23 -5 11 -10 15 -10 8 -1 -7 -8 -10 -17 -6 -12 4
-14 0 -10 -23 3 -16 -2 -6 -11 21 -18 51 -35 73 -42 53 -2 -6 -11 -18 -21 -28
-17 -17 -18 -17 -28 4 -8 18 -14 7 -40 -74 -17 -52 -76 -228 -132 -390 -56
-162 -157 -466 -226 -675 -69 -209 -144 -434 -166 -500 -40 -122 -57 -153 -95
-174 -37 -19 -55 -13 -188 62 -72 40 -184 102 -250 136 -180 95 -335 183 -342
194 -5 9 123 -56 240 -122 18 -10 75 -40 127 -68 52 -28 131 -70 175 -94 153
-82 169 -89 191 -89 61 0 78 32 163 296 33 105 122 373 196 595 416 1237 635
1898 635 1918 0 27 -18 62 -39 77 -9 6 -92 51 -186 99 -93 48 -201 104 -240
125 -68 36 -415 219 -855 450 -118 62 -242 127 -275 145 -33 18 -127 67 -210
110 -82 43 -154 81 -160 85 -11 8 -125 68 -465 245 -124 65 -304 159 -400 210
-182 96 -781 408 -884 459 -57 29 -59 30 -73 11 -7 -11 -32 -78 -54 -150 -22
-71 -70 -224 -106 -340 -35 -115 -76 -245 -90 -287 l-25 -78 -98 0 -98 0 25
78 c13 42 53 174 89 292 117 393 190 625 206 655 32 61 95 98 153 90 25 -4
173 -77 395 -194z m-2583 109 c42 -25 56 -53 47 -93 -16 -75 -68 -130 -136
-142 -34 -7 -41 -4 -73 28 -43 43 -46 84 -11 141 25 41 88 86 121 86 11 0 34
-9 52 -20z m4514 -124 c-6 -8 -10 -19 -9 -26 2 -7 -3 -15 -9 -17 -10 -3 -10 3
-2 26 6 17 16 31 21 31 7 0 6 -5 -1 -14z m49 -60 c0 -10 -34 2 -38 13 -3 10 0
10 17 2 11 -7 21 -13 21 -15z m-2170 -118 c36 -20 133 -70 215 -113 83 -43
220 -115 305 -160 85 -45 189 -99 230 -120 41 -21 90 -47 110 -58 19 -11 71
-40 115 -65 44 -24 81 -48 83 -53 2 -4 9 -6 17 -3 7 3 16 1 19 -4 3 -6 42 -27
86 -47 44 -21 77 -42 74 -46 -3 -5 4 -9 15 -9 12 0 21 -4 21 -10 0 -5 3 -9 8
-9 19 3 22 -2 8 -17 -9 -8 -20 -12 -26 -9 -5 3 -10 -1 -10 -9 0 -9 4 -16 9
-16 14 0 41 -29 41 -43 0 -7 -4 -6 -10 3 -5 8 -12 11 -16 7 -4 -4 -13 -2 -20
4 -9 7 -14 5 -19 -10 -3 -12 -11 -21 -16 -21 -5 0 -9 -10 -9 -22 0 -12 -3 -18
-6 -15 -4 4 -15 -9 -26 -29 -14 -26 -17 -48 -14 -84 3 -31 1 -50 -5 -50 -6 0
-8 -4 -5 -8 7 -11 -48 -64 -57 -55 -4 3 -7 2 -7 -4 0 -6 10 -14 23 -18 13 -4
17 -8 10 -12 -18 -7 -16 -26 2 -19 8 3 15 1 15 -4 0 -6 -6 -10 -12 -10 -7 -1
-3 -9 10 -20 22 -18 22 -19 3 -29 -11 -6 -28 -8 -38 -5 -15 5 -15 4 -3 -5 8
-6 23 -8 33 -5 9 3 17 1 17 -5 0 -6 -6 -11 -12 -12 -9 0 -9 -2 -2 -5 9 -4 9
-14 1 -39 -12 -39 -18 -42 -38 -19 -7 8 -26 22 -41 30 -26 13 -29 19 -23 47 5
29 4 30 -8 15 -8 -10 -17 -18 -20 -18 -3 0 -52 31 -109 68 -57 38 -123 80
-148 93 -25 13 -46 27 -48 32 -2 4 -10 7 -18 7 -7 0 -51 18 -96 41 -121 59
-133 64 -243 98 -55 18 -109 36 -120 40 -18 8 -155 40 -265 63 -86 17 -264 38
-327 38 -35 0 -63 3 -63 6 0 21 47 162 58 173 7 7 11 19 8 26 -4 11 21 105 57
215 9 25 34 113 56 195 23 83 46 162 52 178 l11 27 52 -28 c28 -16 80 -45 116
-64z m2234 74 c3 -5 -8 -6 -25 -4 -16 2 -29 6 -29 8 0 8 49 4 54 -4z m-578
-103 c9 -16 -46 -129 -64 -129 -7 0 -12 3 -10 8 2 4 14 35 28 70 25 62 33 71
46 51z m662 -29 c16 -35 29 -37 77 -10 20 11 40 20 46 20 14 0 89 -51 89 -62
0 -4 -11 -1 -25 8 -14 9 -25 13 -25 10 0 -4 -9 -1 -20 7 -17 12 -39 4 -217
-85 -109 -55 -204 -104 -211 -110 -9 -8 -12 -31 -10 -72 l3 -60 61 -36 c33
-19 82 -48 108 -64 l48 -29 52 21 c30 13 43 15 32 7 -11 -8 -16 -15 -10 -15 5
0 -4 -9 -21 -20 -16 -11 -36 -20 -43 -20 -19 0 -83 46 -75 53 5 6 0 8 -22 7
-14 -1 -65 32 -65 41 0 6 -4 8 -10 4 -5 -3 -18 2 -28 12 -10 10 -25 19 -33 21
-28 7 -34 24 -31 86 l4 64 -79 51 c-95 61 -88 66 16 10 l76 -42 157 78 c172
84 165 76 128 145 -8 15 -7 18 2 15 7 -3 19 -19 26 -35z m-3159 -6 c57 -47 37
-137 -41 -194 -57 -41 -108 -41 -150 0 -27 27 -30 36 -25 71 6 46 45 102 91
130 44 27 88 24 125 -7z m-1975 -35 l27 -31 -3 -712 -3 -711 -23 -47 c-13 -26
-40 -60 -60 -76 -20 -16 -140 -86 -267 -157 -216 -120 -883 -498 -1131 -641
-61 -35 -125 -67 -142 -70 -43 -9 -78 16 -92 63 -8 27 -10 249 -8 728 3 687 3
690 25 731 24 46 86 105 135 130 18 9 69 38 113 63 44 26 139 80 210 121 72
40 164 92 205 115 422 238 799 453 869 497 63 39 111 38 145 -3z m4511 5 c-9
-15 -12 -23 -6 -20 14 9 14 4 -3 -29 -9 -17 -16 -22 -19 -13 -4 9 -6 8 -6 -4
-1 -9 4 -18 11 -20 9 -3 9 -6 0 -12 -16 -9 -27 18 -17 42 5 9 9 23 11 30 3 14
33 52 42 52 2 0 -3 -12 -13 -26z m79 15 c14 -7 28 -19 31 -27 5 -12 1 -12 -15
3 -11 10 -20 15 -20 11 0 -4 12 -18 26 -31 25 -23 26 -27 14 -55 -15 -35 -55
-70 -80 -70 -10 0 -28 8 -41 18 -18 15 -20 20 -8 27 8 5 11 5 7 0 -4 -4 0 -14
9 -20 14 -11 23 -9 50 12 18 14 33 31 33 38 0 7 5 15 12 17 22 8 -38 61 -61
55 -23 -6 -24 -5 -15 17 7 19 24 20 58 5z m-5420 -44 c-10 -8 -23 -14 -29 -14
-5 0 -1 6 9 14 11 8 24 15 30 15 5 0 1 -7 -10 -15z m6241 -23 c-3 -3 -11 0
-18 7 -9 10 -8 11 6 5 10 -3 15 -9 12 -12z m-5001 -54 c37 -16 70 -89 61 -135
-10 -56 -39 -105 -84 -146 l-41 -37 0 -382 c0 -211 -3 -401 -7 -423 -15 -93
-22 19 -22 398 l-1 397 -41 0 c-33 0 -47 6 -70 31 -25 27 -29 39 -29 88 1 141
130 257 234 209z m4960 -214 c9 -3 16 -11 16 -16 0 -6 -7 -7 -16 -4 -8 3 -36
-5 -62 -18 -26 -13 -60 -26 -77 -29 -16 -3 -39 -8 -50 -12 -11 -3 -3 3 18 15
21 11 43 18 50 14 7 -4 8 -3 4 2 -5 5 12 18 40 31 55 25 56 25 77 17z m235
-67 c-2 -1 -13 -9 -24 -17 -19 -14 -19 -14 -6 3 7 9 18 17 24 17 6 0 8 -1 6
-3z m-3754 -56 c-6 -11 -119 -81 -129 -81 -27 0 39 53 104 82 22 10 32 9 25
-1z m4261 -198 c13 -52 -45 -69 -75 -21 -12 19 -11 24 8 39 27 22 59 13 67
-18z m-622 -21 c17 -9 33 -19 36 -23 3 -3 52 -29 110 -58 58 -29 110 -57 115
-61 6 -4 60 -33 120 -65 61 -32 124 -66 140 -75 17 -9 57 -32 90 -50 33 -18
91 -50 128 -71 38 -22 71 -39 74 -39 4 0 136 -73 252 -138 8 -5 16 -13 18 -19
6 -17 -32 -4 -56 18 -12 11 -21 17 -21 14 0 -3 -33 12 -72 34 -40 22 -72 45
-70 51 1 7 -3 10 -10 8 -12 -4 -207 92 -358 177 -41 23 -93 51 -115 62 -148
72 -458 247 -463 261 -4 14 30 3 82 -26z m-1311 11 c-7 -2 -19 -2 -25 0 -7 3
-2 5 12 5 14 0 19 -2 13 -5z m64 -33 c2 -20 -8 -26 -20 -13 -4 3 -2 12 4 20
15 17 14 17 16 -7z m-1801 -60 c543 -44 984 -202 1374 -493 117 -88 329 -293
420 -407 144 -181 334 -514 334 -587 0 -18 3 -27 7 -21 4 7 7 -2 7 -20 -1 -17
-5 -29 -11 -25 -5 3 -6 -3 -2 -16 5 -16 2 -21 -13 -21 -22 0 -46 -23 -35 -34
4 -4 -3 -9 -15 -13 -12 -3 -22 -12 -22 -20 0 -8 -5 -11 -11 -8 -6 4 -8 14 -5
22 3 8 2 12 -3 9 -5 -3 -12 6 -16 22 -4 15 -31 77 -60 139 -176 370 -456 696
-785 914 -234 155 -618 303 -870 334 -45 6 -63 15 -98 46 -194 179 -438 184
-622 13 -37 -35 -54 -43 -100 -49 -151 -19 -400 -90 -563 -159 -687 -294
-1180 -853 -1351 -1534 -40 -159 -56 -271 -68 -489 -20 -345 -16 -388 53 -546
22 -48 39 -92 39 -97 0 -24 107 -277 165 -393 36 -71 63 -133 59 -138 -3 -5 0
-8 8 -7 8 2 13 -8 13 -27 1 -16 5 -38 9 -48 13 -28 -11 -47 -29 -23 -9 11 -20
16 -30 12 -17 -6 -54 9 -68 28 -5 6 -7 1 -4 -12 11 -48 -24 14 -124 218 -142
291 -196 510 -218 890 -7 117 -8 125 -11 60 -2 -41 -2 -83 -2 -93 1 -10 -3
-37 -9 -60 -6 -23 -14 -60 -18 -82 -14 -74 -24 98 -18 317 5 208 15 285 63
486 128 531 431 1002 874 1358 366 294 861 499 1315 543 61 6 124 13 140 15
65 7 178 6 301 -4z m1914 6 c0 -2 -7 -7 -16 -10 -8 -3 -12 -2 -9 4 6 10 25 14
25 6z m-62 -36 c12 -11 26 -20 32 -20 16 0 3 -74 -21 -124 -10 -22 -16 -42
-13 -45 4 -3 9 -1 11 5 2 7 49 -14 119 -53 63 -36 121 -62 129 -59 8 3 14 0
12 -6 -1 -7 117 -72 263 -146 224 -114 265 -139 268 -158 2 -13 -2 -24 -8 -24
-11 0 -431 207 -560 277 -41 22 -117 62 -168 89 -58 30 -89 51 -83 57 24 24
-29 68 -55 46 -12 -10 -13 -9 -9 4 4 8 2 18 -3 21 -6 3 -12 -1 -16 -9 -3 -9
-18 -15 -36 -15 -25 0 -30 4 -30 25 0 13 8 29 18 34 19 12 12 14 -12 5 -9 -3
-16 -17 -16 -30 0 -15 -6 -24 -16 -24 -8 0 -12 -4 -9 -10 3 -5 -9 -19 -27 -30
-40 -24 -49 -25 -41 -3 4 11 3 14 -5 9 -17 -10 -15 6 5 34 12 17 13 25 5 28
-14 4 -16 32 -2 32 6 0 10 -7 10 -15 0 -17 16 -20 25 -5 3 6 13 10 22 10 8 0
28 9 44 21 16 11 29 17 30 12 1 -4 5 3 10 17 9 25 9 25 5 -3 -5 -42 12 -43 23
-1 19 70 58 91 99 54z m-1833 -103 c126 -58 220 -153 310 -314 155 -274 258
-596 345 -1078 28 -154 34 -199 62 -455 8 -74 13 -249 12 -495 0 -209 2 -367
5 -351 5 23 26 44 97 95 51 36 135 101 187 144 l95 78 -24 44 c-35 66 -180
281 -240 357 -48 59 -54 72 -55 115 0 26 -4 72 -8 101 -4 29 -4 51 -1 50 31
-13 245 -293 330 -433 36 -58 70 -113 76 -122 9 -13 27 1 114 88 262 264 346
427 296 577 -60 180 -278 255 -730 251 l-161 -1 -11 55 -11 55 45 6 c71 10
354 7 460 -4 203 -22 340 -76 436 -172 99 -100 135 -201 116 -324 -26 -160
-117 -298 -364 -551 l-119 -123 36 -77 c33 -72 63 -149 132 -345 15 -43 30
-78 34 -78 22 0 215 67 262 91 75 37 116 80 152 158 70 148 35 345 -94 534
-39 57 -41 63 -30 91 7 17 18 46 24 64 6 17 14 32 18 32 15 0 131 -183 170
-267 60 -129 82 -227 77 -342 -11 -232 -126 -351 -430 -445 -132 -41 -126 -34
-103 -131 8 -33 22 -125 31 -205 29 -259 3 -451 -71 -527 -21 -21 -39 -32 -46
-27 -7 4 -10 3 -6 -3 22 -35 -179 -51 -240 -19 -18 9 -36 17 -40 17 -5 0 -18
2 -30 5 -21 6 -21 7 -6 40 9 18 19 31 23 29 4 -2 6 6 6 18 -1 18 4 22 24 20
14 -2 60 -6 102 -9 l77 -7 35 35 c18 18 39 52 46 73 20 70 23 250 6 365 -21
136 -48 260 -55 256 -13 -8 -214 -46 -316 -61 -110 -15 -266 -20 -278 -9 -3 4
15 27 41 51 26 25 46 49 45 53 -1 4 44 13 100 20 56 6 154 20 219 31 145 24
143 24 156 -3 17 -37 14 1 -7 74 -27 94 -77 228 -123 326 l-38 84 -63 -54
c-127 -110 -348 -268 -373 -268 -16 0 -17 -6 -39 -155 -9 -60 -23 -155 -31
-210 -9 -55 -27 -149 -41 -210 -14 -60 -25 -117 -25 -125 1 -8 -3 -31 -8 -50
-5 -19 -12 -56 -15 -82 l-6 -47 -35 19 c-19 11 -37 20 -42 20 -41 2 -410 174
-565 264 l-78 45 -52 -31 c-145 -85 -542 -271 -685 -321 -57 -20 -72 -22 -68
-11 3 8 11 44 18 79 10 58 14 65 35 65 13 0 23 2 23 5 0 11 -42 180 -48 195
-3 8 -13 60 -22 115 l-15 100 -110 8 c-211 14 -423 38 -534 61 l-111 22 -10
-36 c-39 -145 -65 -367 -55 -465 10 -96 31 -158 65 -190 26 -25 40 -30 98 -33
41 -2 91 2 128 12 34 9 66 16 72 16 5 0 25 -24 45 -54 l36 -54 -38 -15 c-113
-46 -268 -61 -355 -35 -56 17 -128 90 -151 153 -13 36 -19 91 -22 201 -6 168
5 275 43 432 14 57 24 105 22 107 -2 1 -48 13 -103 25 -286 64 -429 149 -502
299 -26 52 -28 64 -28 186 0 119 2 136 28 202 16 40 51 109 78 154 47 80 172
241 222 287 l25 24 7 -24 c4 -12 14 -38 22 -55 l15 -33 -58 -75 c-75 -96 -148
-214 -176 -285 -18 -45 -22 -76 -22 -170 -1 -107 1 -119 26 -167 38 -71 85
-116 160 -152 76 -36 255 -90 310 -93 l39 -3 48 130 c26 72 75 188 109 258
l61 128 -67 61 c-217 198 -364 384 -424 537 -15 39 -21 79 -22 131 -2 209 169
351 499 412 47 9 166 13 366 13 l295 0 23 76 c32 106 31 105 76 75 21 -14 46
-26 57 -26 14 0 18 -5 14 -17 -55 -196 -79 -332 -118 -673 -14 -128 -18 -880
-5 -940 7 -30 21 -44 110 -101 183 -119 309 -194 474 -282 l162 -86 187 101
c172 92 312 173 471 273 58 37 63 43 70 85 11 74 7 714 -6 865 -16 188 -36
338 -66 503 -31 167 -94 432 -104 432 -27 0 -318 -109 -388 -145 -24 -13 -24
-14 44 -53 37 -22 108 -68 157 -102 l89 -61 53 16 c28 8 57 15 63 15 15 0 14
-77 -1 -84 -9 -3 -7 -10 8 -24 17 -15 24 -35 29 -95 4 -42 4 -77 0 -77 -5 0
-45 27 -90 59 -143 104 -489 321 -512 321 -18 0 -284 -160 -442 -267 -101 -68
-185 -122 -187 -121 -1 2 1 37 6 78 8 63 14 79 37 99 22 19 24 25 11 32 -15 9
-14 64 3 75 5 3 30 -2 57 -9 l49 -15 123 78 c67 43 140 86 162 96 21 9 37 22
35 27 -2 6 -39 26 -83 45 -104 45 -106 47 -88 80 8 15 14 37 14 50 0 39 51 24
226 -65 l71 -37 124 56 c131 60 287 119 362 140 l45 12 -30 85 c-73 206 -167
378 -266 482 -92 99 -138 123 -226 124 -60 0 -79 -5 -123 -29 -101 -56 -198
-173 -280 -338 -43 -86 -44 -88 -66 -73 -12 7 -41 17 -64 21 -24 4 -43 10 -43
14 0 17 118 239 160 300 86 129 217 232 326 259 66 17 164 7 229 -22z m1912
-83 c-3 -3 -12 -4 -19 -1 -8 3 -5 6 6 6 11 1 17 -2 13 -5z m-89 -78 c12 -4 22
-12 22 -18 0 -5 7 -7 16 -4 8 3 13 2 10 -3 -3 -5 2 -12 12 -15 9 -4 87 -45
172 -90 85 -46 194 -104 241 -129 143 -75 218 -120 224 -136 13 -32 -15 -30
-81 7 -38 21 -134 73 -214 114 -80 41 -171 89 -202 106 -32 17 -111 59 -178
93 -86 44 -120 67 -120 80 0 21 49 31 65 13 6 -6 20 -14 33 -18z m-208 -101
c0 -11 -6 -30 -14 -41 -16 -22 -15 -56 0 -61 6 -2 23 17 38 42 41 64 93 58 60
-6 -8 -16 -11 -41 -7 -64 l6 -38 16 44 c26 71 84 80 116 18 9 -17 12 -28 6
-25 -6 4 -11 0 -11 -9 0 -9 5 -13 10 -10 6 3 10 1 10 -4 0 -6 -4 -11 -10 -11
-5 0 -12 -11 -16 -25 -12 -47 -74 -60 -113 -24 -12 12 -25 18 -29 14 -3 -3 0
-10 8 -15 8 -5 11 -12 7 -16 -4 -4 -30 15 -59 42 -29 27 -66 60 -83 72 l-30
23 23 15 c26 19 28 42 7 70 -23 31 -19 52 13 56 30 3 51 -16 52 -47z m855 -13
c111 -60 138 -83 119 -102 -15 -15 -264 108 -264 130 0 44 18 40 145 -28z
m-3180 -138 c-65 -129 -65 -129 -117 -150 -100 -41 -149 -114 -179 -267 -16
-87 -35 -106 -31 -32 3 35 -2 65 -12 87 -15 31 -15 38 -1 71 32 76 13 182 -42
239 l-26 27 44 19 c24 10 65 27 91 37 27 10 45 22 41 28 -4 6 4 7 21 3 20 -5
26 -4 20 5 -4 7 -3 9 3 6 8 -5 96 16 218 51 17 5 31 8 33 7 1 -1 -27 -60 -63
-131z m1224 102 c35 -10 89 -27 120 -39 l56 -21 -35 -6 c-22 -4 -34 -11 -32
-19 2 -9 -3 -11 -13 -7 -17 6 -65 -34 -65 -54 0 -6 -9 -20 -20 -32 -10 -12
-17 -26 -13 -31 3 -6 1 -7 -5 -3 -7 4 -12 1 -12 -6 0 -11 -2 -10 -9 0 -4 8 -7
27 -5 44 3 26 2 29 -11 18 -10 -8 -15 -9 -15 -1 0 6 -15 42 -34 81 -19 38 -32
70 -28 70 3 0 1 5 -6 12 -29 29 -2 28 127 -6z m1268 -2 c-3 -3 -12 -4 -19 -1
-8 3 -5 6 6 6 11 1 17 -2 13 -5z m-2740 -50 c-3 -3 -12 -4 -19 -1 -8 3 -5 6 6
6 11 1 17 -2 13 -5z m-37 -8 c0 -2 -7 -7 -16 -10 -8 -3 -12 -2 -9 4 6 10 25
14 25 6z m2892 -61 c-6 -24 -9 -52 -6 -62 5 -15 4 -16 -5 -3 -9 12 -11 11 -11
-7 0 -13 6 -23 14 -23 19 0 31 -19 19 -31 -5 -5 -25 -3 -47 5 -38 13 -62 36
-47 46 5 3 23 36 41 74 23 51 34 66 43 57 8 -8 8 -23 -1 -56z m-2002 28 c45
-31 122 -108 137 -137 8 -15 28 -41 44 -57 21 -21 25 -29 14 -29 -9 0 -13 -5
-10 -11 4 -6 13 -8 21 -5 7 3 16 0 20 -6 4 -6 3 -8 -4 -4 -6 3 -13 2 -17 -4
-9 -14 -48 8 -42 24 3 6 -3 12 -14 12 -11 0 -19 -6 -19 -12 0 -6 -12 -20 -27
-30 -15 -9 -32 -21 -38 -26 -5 -4 -37 -29 -70 -53 -33 -25 -64 -54 -69 -64 -4
-10 -19 -24 -32 -32 -13 -7 -24 -19 -24 -27 0 -11 -8 -9 -37 8 -20 12 -32 16
-26 8 5 -7 13 -22 16 -33 6 -15 1 -14 -18 8 -23 26 -30 27 -26 3 1 -5 -6 -5
-16 -1 -10 4 -32 9 -49 12 -30 5 -32 8 -38 60 -4 30 -11 64 -17 75 -11 20 -8
27 43 93 55 72 243 245 267 245 4 0 18 -8 31 -17z m2918 -50 c2 -24 7 -43 12
-43 5 0 12 -20 16 -45 3 -25 15 -56 25 -69 10 -13 93 -65 183 -115 91 -50 193
-107 228 -126 35 -20 97 -53 138 -74 99 -52 112 -62 100 -81 -8 -13 -17 -11
-62 13 -29 16 -132 71 -228 122 -366 195 -403 218 -425 261 -11 21 -22 41 -23
44 -2 3 -15 -8 -28 -23 -33 -38 -58 -32 -62 15 -3 31 1 38 25 50 21 10 30 24
37 53 14 65 15 67 38 63 19 -2 24 -10 26 -45z m-809 14 c8 -10 6 -23 -9 -52
-10 -20 -22 -57 -26 -81 -3 -24 -11 -42 -18 -41 -20 4 -38 37 -30 55 4 9 8 22
8 27 1 15 28 78 39 93 12 16 22 15 36 -1z m-3155 -47 c65 -58 71 -141 15 -205
-82 -94 -233 -51 -246 69 -7 60 11 102 60 137 57 41 123 41 171 -1z m3246 12
c27 -22 29 -80 6 -136 -12 -30 -20 -36 -44 -36 -17 0 -40 8 -53 19 l-23 19 19
58 c13 38 28 62 42 70 13 6 20 14 16 17 -15 15 16 6 37 -11z m1830 -58 c0 -2
-9 0 -20 6 -11 6 -20 13 -20 16 0 2 9 0 20 -6 11 -6 20 -13 20 -16z m-2920
-24 c99 -50 149 -194 101 -288 -40 -77 -92 -111 -182 -119 -142 -13 -257 114
-235 259 4 26 17 61 29 79 24 35 89 85 122 93 37 8 126 -4 165 -24z m1206 8
c3 -5 -2 -21 -12 -36 -11 -17 -17 -45 -17 -75 l1 -48 -32 7 c-58 12 -73 38
-31 54 24 9 26 16 30 75 1 11 4 26 8 32 8 12 44 6 53 -9z m1800 -4 c8 3 14 1
14 -5 0 -6 5 -7 12 -3 7 4 8 3 4 -4 -9 -15 -55 -5 -76 15 -13 14 -12 14 8 3
13 -6 30 -9 38 -6z m-1706 -49 l26 -25 -14 -75 c-10 -49 -20 -75 -28 -75 -8 0
-14 9 -14 19 0 47 -23 67 -35 31 -7 -24 -33 -27 -41 -5 -4 9 0 28 8 43 42 83
59 112 65 112 4 0 19 -11 33 -25z m-2964 -11 c67 -23 100 -51 129 -108 31 -62
33 -135 5 -198 -23 -53 -41 -70 -100 -97 -84 -38 -173 -23 -245 40 -51 45 -65
78 -65 151 1 104 51 183 136 213 52 19 84 18 140 -1z m4799 -14 c4 -6 11 -8
16 -5 5 4 9 1 9 -4 0 -6 5 -10 11 -8 13 2 79 -78 79 -96 0 -8 -3 -7 -9 1 -6
10 -10 9 -14 -7 -3 -12 -9 -21 -14 -21 -10 0 -58 90 -55 103 2 5 -2 6 -8 2 -5
-3 -22 5 -37 19 -15 15 -32 26 -38 26 -5 0 -3 4 4 9 15 10 44 0 56 -19z
m-5580 -32 c4 -18 18 -49 30 -68 19 -30 22 -44 15 -78 -8 -45 0 -104 17 -137
28 -51 105 -95 176 -101 22 -1 42 -6 45 -10 4 -3 -10 -4 -30 0 -50 9 -77 -6
-70 -39 3 -18 -1 -31 -14 -41 -32 -24 -83 -46 -93 -40 -15 10 -256 -22 -341
-44 -219 -58 -345 -148 -417 -298 -32 -68 -37 -86 -37 -153 -1 -42 -4 -72 -8
-65 -5 6 -8 1 -9 -14 -2 -25 -2 -25 -6 -2 -4 21 -6 22 -16 8 -10 -13 -18 -14
-50 -4 -30 9 -36 15 -32 32 3 12 -2 8 -10 -9 -8 -17 -14 -23 -15 -14 0 21 29
89 30 69 1 -8 11 17 24 55 46 138 110 275 170 370 115 179 291 369 451 487 50
37 98 73 107 81 9 9 18 13 20 11 3 -2 13 5 24 15 26 27 31 26 39 -11z m3840
12 c31 -12 31 -21 -7 -112 -23 -57 -48 -77 -48 -37 0 11 10 41 21 67 l21 46
-21 14 c-41 28 -19 42 34 22z m98 -138 c2 -72 0 -82 -15 -82 -10 0 -18 5 -18
10 0 6 -9 10 -20 10 -23 0 -25 13 -9 61 23 73 32 90 46 87 11 -2 15 -22 16
-86z m105 31 c9 -4 -43 -146 -56 -150 -31 -12 -42 54 -21 118 18 52 27 60 52
46 12 -7 24 -13 25 -14z m-1981 -35 c-2 -7 2 -34 9 -60 12 -48 3 -74 -14 -41
-22 40 -32 97 -19 105 18 12 29 10 24 -4z m2058 -4 c30 -20 33 -63 7 -113 -23
-47 -44 -58 -77 -43 -24 11 -26 16 -21 48 10 49 43 124 56 124 6 0 22 -7 35
-16z m84 -87 c-2 -61 -39 -131 -59 -111 -10 10 -2 45 31 132 12 31 29 18 28
-21z m-2939 7 c0 -11 -5 -14 -16 -10 -9 3 -20 6 -25 6 -6 0 -7 5 -4 10 10 16
45 12 45 -6z m3007 -29 c-5 -33 -4 -35 24 -35 16 0 29 5 29 10 0 6 9 10 20 10
25 0 26 -23 2 -58 -10 -15 -24 -42 -31 -59 -14 -34 -41 -45 -41 -18 0 9 9 34
20 55 16 32 18 40 6 40 -8 0 -21 3 -29 6 -11 4 -20 -8 -32 -40 -10 -25 -22
-46 -26 -46 -18 0 -8 70 17 119 31 59 49 66 41 16z m-787 -15 c22 0 35 -33 22
-56 -8 -15 -13 -12 -35 22 -13 21 -22 43 -19 49 3 5 7 4 10 -3 2 -7 12 -12 22
-12z m935 -92 c-20 -73 -51 -138 -65 -138 -12 0 -13 22 -2 36 4 5 14 27 21 49
44 127 78 167 46 53z m-627 -15 c43 -24 289 -157 687 -371 259 -139 358 -196
357 -207 -2 -22 -35 -14 -109 28 -43 24 -145 79 -228 122 -385 200 -734 387
-784 422 -7 5 9 33 19 33 6 0 32 -12 58 -27z m-3450 -6 c4 -20 -34 -23 -58 -6
-11 8 -8 9 14 4 24 -5 27 -3 22 10 -4 11 -2 15 6 13 7 -3 14 -12 16 -21z
m-123 -37 c-27 -12 -43 -12 -25 0 8 5 22 9 30 9 10 0 8 -3 -5 -9z m3785 -176
c57 -33 355 -195 485 -264 55 -29 129 -70 165 -90 36 -21 97 -54 135 -75 138
-74 205 -117 205 -131 0 -22 -18 -17 -109 35 -47 27 -122 68 -166 91 -44 24
-98 53 -120 65 -34 20 -566 300 -647 342 -31 16 -38 53 -10 53 9 0 37 -12 62
-26z m-5724 -193 c-18 -20 -140 -93 -401 -239 -88 -49 -243 -137 -343 -196
-101 -58 -186 -106 -188 -106 -13 0 -1 29 14 34 16 7 99 54 207 119 28 16 70
41 95 55 25 14 97 54 160 90 63 36 151 85 195 110 116 65 217 123 240 138 30
19 40 17 21 -5z m5586 -72 c84 -45 196 -105 248 -134 123 -67 443 -239 649
-347 72 -38 122 -79 103 -86 -6 -2 -49 17 -94 41 -46 25 -153 81 -238 125
-211 108 -523 273 -535 282 -5 4 -64 36 -130 70 -66 35 -127 69 -137 77 -15
13 -32 53 -22 53 2 0 72 -37 156 -81z m-5566 -38 c-6 -10 -264 -164 -416 -249
-136 -76 -360 -203 -394 -223 -27 -16 -37 -18 -34 -8 3 8 10 14 16 14 6 0 39
19 74 41 35 23 81 50 103 61 22 11 67 36 99 57 33 20 66 36 73 36 7 0 13 3 13
8 0 4 15 13 33 21 17 8 41 21 52 30 19 16 30 22 125 73 25 14 68 38 95 55 42
26 153 88 163 92 2 0 1 -3 -2 -8z m3106 -42 c104 -22 238 -109 226 -146 -3 -9
42 -86 54 -91 4 -2 8 -10 8 -18 0 -9 4 -13 9 -9 6 3 9 -3 9 -12 -1 -10 8 -49
20 -86 68 -214 14 -440 -136 -577 -110 -102 -234 -154 -390 -166 -349 -25
-594 226 -551 566 29 229 160 404 374 499 108 48 262 64 377 40z m2423 -49
c-9 -28 4 -80 20 -80 14 0 25 22 25 51 0 22 25 26 33 5 3 -8 -5 -36 -19 -63
-30 -59 -30 -61 1 -73 14 -5 25 -16 25 -25 0 -8 3 -15 8 -15 8 0 32 92 32 123
0 16 29 24 42 12 3 -3 -4 -37 -15 -75 -21 -69 -21 -70 -1 -85 18 -15 18 -16
-6 -9 -52 14 -140 72 -140 91 0 6 -9 18 -19 27 -22 20 -36 84 -26 116 4 11 15
20 26 20 16 0 19 -5 14 -20z m-6145 -15 c0 -2 -10 -9 -22 -15 -22 -11 -22 -10
-4 4 21 17 26 19 26 11z m610 -19 c0 -4 -193 -121 -270 -164 -30 -16 -115 -64
-188 -106 -74 -42 -135 -76 -138 -76 -2 0 -25 -13 -51 -28 -90 -54 -187 -104
-176 -90 6 7 29 22 50 32 21 11 61 34 88 52 28 17 75 45 105 61 76 41 292 162
310 173 8 6 31 19 51 29 19 11 73 42 120 70 77 47 99 57 99 47z m410 -13 c-1
-21 -37 -44 -315 -199 -165 -92 -371 -207 -459 -255 -87 -49 -162 -89 -166
-89 -5 0 -16 -7 -24 -16 -9 -9 -22 -17 -29 -18 -24 -5 -52 -19 -69 -34 -10 -8
-18 -11 -18 -5 0 5 18 19 40 32 22 12 40 19 40 15 0 -4 12 5 27 20 14 15 32
25 40 22 7 -3 12 -1 10 4 -2 9 107 74 358 215 72 40 225 127 340 193 116 67
213 121 218 121 4 1 7 -2 7 -6z m5379 -72 c11 -7 11 -17 -3 -62 -18 -65 -45
-107 -56 -89 -4 6 1 30 12 51 10 22 16 44 13 48 -3 5 1 12 7 15 7 3 3 3 -9 0
-23 -5 -28 2 -17 30 7 17 31 21 53 7z m-2392 -16 c5 -4 2 -5 -6 0 -11 6 -13 4
-8 -8 9 -23 0 -21 -13 2 -7 15 -7 19 5 17 8 -1 18 -6 22 -11z m-2452 -15 c3
-5 1 -10 -4 -10 -6 0 -11 5 -11 10 0 6 2 10 4 10 3 0 8 -4 11 -10z m4943 -16
c28 -19 29 -64 2 -89 -14 -12 -17 -25 -13 -46 6 -32 1 -34 -46 -18 -29 10 -45
42 -18 38 31 -4 47 2 47 19 0 10 7 27 15 38 20 27 18 44 -5 44 -16 0 -20 -7
-20 -34 0 -30 -19 -53 -33 -40 -7 7 12 76 25 92 13 16 19 15 46 -4z m-4933
-22 c-3 -3 -11 0 -18 7 -9 10 -8 11 6 5 10 -3 15 -9 12 -12z m5030 -54 c-4
-13 -14 -49 -22 -80 -16 -58 -28 -72 -40 -43 -5 14 -1 33 24 128 2 9 14 17 25
17 17 0 19 -4 13 -22z m96 -28 c23 -13 24 -32 3 -93 -17 -52 -46 -68 -83 -47
-28 14 -26 35 5 98 26 53 40 60 75 42z m104 -63 c14 -11 17 -22 12 -56 -7 -53
-32 -83 -66 -79 -22 3 -26 9 -29 40 -4 45 24 108 47 108 10 0 25 -6 36 -13z
m113 -57 l22 -19 -26 -38 -27 -38 7 43 c4 25 2 42 -4 42 -11 0 -40 -64 -40
-91 0 -21 -18 -35 -31 -22 -5 5 2 36 17 76 28 72 42 81 82 47z m-7652 -9 c4 7
10 7 16 1 6 -6 16 -8 23 -6 19 8 17 -105 -3 -138 -32 -55 -118 -75 -159 -36
-61 57 17 207 93 178 15 -6 26 -5 30 1z m488 -16 c-10 -8 -23 -15 -28 -15 -6
0 -1 7 10 15 10 8 23 15 28 15 6 0 1 -7 -10 -15z m6646 -105 c30 -18 65 -36
77 -41 22 -8 33 -49 14 -49 -10 0 -188 96 -268 144 -29 17 -43 32 -43 46 0 20
6 18 83 -23 45 -24 107 -59 137 -77z m568 80 c-15 -23 -28 -26 -28 -7 0 17 10
27 27 27 11 0 11 -4 1 -20z m61 -22 c11 -30 4 -46 -22 -50 -19 -3 -22 -9 -20
-45 2 -52 -14 -57 -23 -7 -8 45 -31 54 -56 23 l-20 -24 7 30 c3 17 14 38 24
48 17 18 19 18 36 1 17 -17 18 -17 31 1 8 10 14 25 14 32 0 21 20 15 29 -9z
m61 -84 c-12 -27 -20 -63 -18 -80 3 -28 2 -30 -15 -20 -14 9 -17 18 -12 46 10
56 44 125 56 113 6 -6 3 -26 -11 -59z m-729 -57 c286 -155 529 -292 529 -298
0 -21 -113 31 -455 211 -249 131 -245 128 -245 162 0 30 1 30 19 14 10 -9 78
-49 152 -89z m-5418 -79 c-3 -61 -9 -86 -21 -96 -17 -13 -275 -169 -502 -302
-69 -40 -151 -91 -182 -112 -31 -21 -65 -38 -75 -38 -10 0 -56 16 -102 34 -81
33 -83 34 -60 49 57 36 246 147 539 317 173 101 333 194 355 207 22 12 43 23
47 23 3 0 4 -37 1 -82z m5396 -14 c75 -42 233 -130 351 -196 201 -112 229
-131 230 -150 0 -10 -309 150 -545 282 -60 33 -127 69 -147 78 -27 12 -38 23
-38 40 0 12 3 22 7 22 3 0 67 -34 142 -76z m795 60 c10 -25 7 -41 -4 -24 -8
12 -11 13 -19 1 -6 -9 -11 -10 -15 -2 -4 6 -2 11 3 11 6 0 10 3 10 8 -4 26 15
31 25 6z m-7270 -75 c-17 -19 -84 -59 -99 -59 -4 0 0 7 9 15 8 8 18 15 23 15
5 0 24 11 43 25 43 30 48 31 24 4z m-130 -77 c2 -4 -4 -8 -14 -8 -10 0 -16 4
-14 8 3 4 9 8 14 8 5 0 11 -4 14 -8z m-64 -32 c-14 -11 -29 -20 -35 -20 -5 0
4 9 20 20 38 25 48 25 15 0z m6544 -124 c-4 -11 -10 -35 -14 -52 -4 -17 -12
-39 -18 -50 -9 -15 -10 -9 -6 31 3 28 8 57 11 65 4 8 5 21 4 27 -1 8 4 10 14
7 11 -5 13 -13 9 -28z m96 -35 c23 -18 23 -21 8 -38 -9 -10 -18 -40 -21 -68
-2 -35 -8 -50 -18 -50 -18 0 -13 74 7 96 8 8 14 23 14 32 0 31 -17 17 -34 -28
-14 -36 -22 -45 -42 -45 -13 0 -24 5 -24 10 0 6 4 10 9 10 4 0 18 23 29 50 23
54 34 59 72 31z m82 -37 c3 -3 -3 -30 -13 -59 -23 -67 -24 -81 -3 -89 9 -4 15
-9 12 -12 -11 -10 -58 20 -58 37 0 23 41 129 50 129 4 0 9 -3 12 -6z m73 -119
c-10 -36 -21 -68 -25 -70 -4 -2 -16 2 -26 10 -10 8 -14 15 -7 15 7 0 17 19 23
41 20 75 30 93 42 81 8 -8 6 -29 -7 -77z m85 26 c0 -14 -21 -74 -42 -119 -21
-45 -44 -49 -27 -4 6 15 20 51 31 80 11 28 24 52 29 52 5 0 9 -4 9 -9z m53
-34 c3 -7 0 -34 -7 -59 -10 -41 -13 -44 -34 -37 -12 5 -22 15 -22 23 0 9 6 13
14 10 9 -4 15 7 20 35 6 41 19 53 29 28z m67 -24 c0 -3 -14 -28 -31 -54 -21
-34 -29 -55 -24 -69 6 -20 5 -21 -14 -11 -23 13 -28 36 -10 47 6 3 20 26 31
50 10 24 25 44 33 44 8 0 15 -3 15 -7z m-5845 -23 c-4 -6 -25 -20 -48 -31 -49
-25 -44 -16 10 17 43 27 47 28 38 14z m5925 -25 c0 -8 -4 -15 -9 -15 -16 0
-33 -100 -20 -116 17 -21 -16 -18 -40 3 -17 14 -18 18 -5 27 8 6 17 29 21 51
3 22 10 46 16 53 13 17 37 15 37 -3z m-6744 -21 c24 -17 52 -56 37 -53 -4 1
-21 -3 -36 -9 -16 -7 -34 -12 -41 -12 -19 0 -67 -40 -61 -50 3 -4 -2 -11 -11
-14 -42 -16 -39 -5 25 96 39 62 48 67 87 42z m724 -9 c0 -2 -10 -9 -22 -15
-22 -11 -22 -10 -4 4 21 17 26 19 26 11z m6117 -93 c-36 -67 -35 -67 -42 -60
-3 3 6 27 20 53 29 55 31 75 10 75 -15 0 -23 -11 -29 -42 -18 -77 -18 -78 -37
-67 -18 9 -18 12 7 66 13 32 30 60 36 64 6 4 23 -2 38 -13 l27 -20 -30 -56z
m-6187 48 c-14 -11 -33 -22 -44 -26 -10 -3 -34 -17 -53 -30 -20 -13 -41 -24
-47 -24 -12 0 28 26 109 72 59 33 70 35 35 8z m5575 -82 c13 -12 -14 -2 -77
29 -26 13 -48 28 -48 33 0 9 102 -41 125 -62z m689 66 c20 -8 20 -21 1 -40 -8
-9 -15 -26 -15 -39 0 -24 -16 -42 -27 -31 -6 5 16 116 23 116 1 0 9 -3 18 -6z
m718 -71 c-5 -10 -7 -33 -4 -52 3 -23 1 -32 -7 -27 -7 5 -9 1 -5 -8 3 -9 10
-13 15 -10 5 3 6 -2 3 -11 -6 -14 -9 -14 -19 -3 -17 17 -31 63 -17 54 6 -4 8
2 5 14 -3 12 2 29 12 40 22 25 29 26 17 3z m-7878 -98 c107 -57 231 -123 276
-145 l81 -41 -23 -19 c-14 -12 -18 -19 -9 -20 11 0 11 -3 1 -15 -7 -9 -18 -14
-24 -12 -14 5 -47 -11 -166 -82 -52 -31 -115 -67 -140 -81 -25 -13 -64 -36
-88 -52 -35 -24 -48 -28 -69 -21 -15 5 -28 13 -30 19 -1 5 42 38 97 74 55 36
100 71 100 78 0 6 -3 12 -7 12 -12 0 -97 -52 -166 -102 l-68 -49 -29 18 c-17
9 -30 20 -30 23 0 3 17 15 38 27 80 46 164 115 154 125 -7 7 -45 -13 -119 -62
l-108 -72 -33 18 -32 17 43 26 c79 47 157 106 157 119 0 6 -3 12 -7 12 -21 0
-193 -116 -193 -131 0 -5 -6 -9 -13 -9 -14 0 -77 29 -77 34 0 2 43 32 95 66
85 56 116 90 83 90 -16 0 -104 -56 -160 -102 -26 -21 -50 -38 -55 -38 -4 0
-21 9 -37 19 l-28 19 89 60 c90 61 126 92 104 92 -21 0 -104 -47 -167 -93
l-61 -45 -27 22 -27 21 233 152 c128 84 236 153 240 153 3 0 94 -47 202 -105z
m726 91 c0 -2 -8 -10 -17 -17 -16 -13 -17 -12 -4 4 13 16 21 21 21 13z m5800
-16 c8 -5 11 -10 5 -10 -5 0 -17 5 -25 10 -8 5 -10 10 -5 10 6 0 17 -5 25 -10z
m-5880 -35 c0 -2 -13 -11 -30 -20 -38 -19 -40 -11 -2 9 31 17 32 18 32 11z
m629 -37 c-41 -24 -261 -155 -304 -180 -71 -43 -554 -331 -650 -388 -123 -73
-184 -104 -191 -97 -6 6 21 24 166 111 30 18 94 57 142 87 101 63 270 165 603
363 182 108 241 139 244 127 2 -8 -3 -19 -10 -23z m6221 -6 c-6 -2 -10 -11
-10 -19 0 -9 -2 -14 -5 -11 -4 3 -3 18 1 33 5 20 9 23 15 13 5 -7 4 -14 -1
-16z m-6920 4 c0 -7 -91 -58 -96 -53 -3 2 17 16 43 30 53 29 53 29 53 23z
m7430 -10 c0 -2 -8 -10 -17 -17 -16 -13 -17 -12 -4 4 13 16 21 21 21 13z m187
-11 c0 -8 -4 -12 -9 -9 -4 3 -8 9 -8 15 0 5 4 9 8 9 5 0 9 -7 9 -15z m-293 -7
c-5 -8 -2 -9 9 -5 48 20 52 20 32 4 -31 -25 -74 -19 -48 6 10 11 15 8 7 -5z
m241 -123 c17 -4 25 -9 18 -12 -17 -6 -66 19 -70 37 -4 13 -2 12 9 -1 7 -9 27
-19 43 -24z m203 25 c-21 -13 -162 -40 -151 -29 13 12 105 38 138 38 24 0 27
-1 13 -9z m-5473 -19 c47 -22 99 -74 114 -114 6 -16 11 -48 11 -72 0 -57 -14
-92 -53 -134 -69 -72 -162 -89 -254 -47 -152 71 -151 298 2 367 51 24 129 24
180 0z m-1470 -97 c25 -54 45 -102 45 -108 0 -7 -13 -20 -29 -29 -17 -10 -33
-27 -37 -39 -8 -27 15 -47 116 -98 54 -28 82 -49 100 -77 13 -21 58 -85 98
-141 59 -82 82 -126 112 -210 21 -59 41 -114 44 -123 9 -21 -18 -42 -249 -196
-199 -133 -233 -164 -241 -214 -5 -28 -1 -41 21 -67 15 -18 37 -37 49 -44 16
-8 15 -5 -6 15 -32 30 -37 79 -13 115 14 18 456 322 470 322 2 0 14 -19 26
-42 12 -24 46 -81 76 -127 30 -46 51 -87 46 -91 -4 -4 -100 -69 -212 -144
-166 -112 -209 -136 -230 -132 -24 5 -24 4 4 -9 39 -19 52 -18 100 4 46 21
358 221 363 233 4 10 22 0 22 -11 0 -9 -14 -19 -227 -156 -84 -54 -153 -102
-153 -106 0 -11 78 -55 435 -249 165 -89 325 -177 355 -194 75 -44 96 -51 241
-89 86 -23 133 -31 150 -26 22 8 22 7 5 -4 -11 -7 -33 -24 -50 -38 -34 -29
-67 -47 -105 -60 -22 -8 -20 -8 9 -4 71 11 207 99 179 116 -9 5 -5 10 14 14
15 4 25 11 22 15 -3 4 3 14 13 21 15 13 16 12 3 -3 -21 -27 2 -21 29 7 13 14
28 25 33 25 5 0 -11 -18 -35 -39 l-43 -40 45 -20 c76 -33 368 -118 500 -144
69 -14 178 -31 244 -38 152 -15 482 -6 586 16 47 10 166 19 315 25 132 4 264
12 293 16 91 12 91 12 -225 -181 -73 -44 -165 -101 -205 -126 -217 -137 -530
-329 -565 -348 -54 -27 -143 -40 -199 -30 -39 7 -209 85 -239 109 -12 10 -745
404 -995 535 -253 133 -633 336 -645 345 -5 4 -113 64 -240 133 -126 68 -293
159 -370 202 -151 84 -263 145 -475 260 -74 40 -166 90 -205 110 -38 21 -124
67 -189 102 -66 36 -154 85 -196 109 -43 24 -81 44 -85 44 -4 0 -25 18 -47 39
-30 31 -38 47 -38 76 0 74 21 95 210 210 415 253 1117 673 1127 675 2 0 23
-43 48 -96z m3531 -83 c97 -44 161 -182 124 -266 -6 -14 -8 -6 -4 25 2 25 1
39 -2 31 -8 -16 -82 -84 -98 -90 -6 -2 -21 -13 -34 -24 -17 -16 -25 -18 -34
-9 -7 7 -23 12 -37 12 -25 -1 -25 -1 -7 -15 11 -8 14 -15 7 -15 -7 0 -10 -4
-7 -9 4 -5 0 -12 -6 -14 -7 -3 5 -6 27 -6 52 -2 27 -21 -28 -21 -109 0 -209
118 -192 228 10 69 29 106 69 138 69 55 150 68 222 35z m-4771 -21 c-3 -5 -12
-10 -18 -10 -7 0 -6 4 3 10 19 12 23 12 15 0z m1695 -74 c0 -12 -14 5 -31 39
-8 16 -6 15 10 -4 12 -13 21 -28 21 -35z m-1774 29 c-11 -8 -24 -15 -30 -15
-5 0 -1 7 10 15 10 8 24 14 29 14 6 0 1 -6 -9 -14z m1401 -42 c7 -10 18 -26
24 -36 10 -18 9 -18 -18 -1 -46 29 -53 36 -47 45 8 14 26 11 41 -8z m4957
-126 l236 -124 -42 -19 c-23 -10 -43 -23 -45 -29 -1 -5 86 -55 194 -110 272
-138 319 -187 266 -276 -23 -39 -35 -37 -19 2 16 38 6 94 -21 120 -10 9 -112
65 -228 124 -115 59 -214 111 -220 116 -6 6 1 18 20 33 26 21 28 26 16 40 -8
9 -44 31 -80 49 -244 121 -351 179 -346 187 3 6 12 10 20 10 8 0 120 -55 249
-123z m-6488 84 c0 -11 -5 -17 -13 -14 -10 4 -11 9 -2 19 15 18 15 18 15 -5z
m5084 -160 c-14 -27 -27 -34 -36 -19 -4 7 -4 10 1 6 5 -5 14 1 22 12 18 26 27
26 13 1z m-1680 -126 c174 -463 376 -656 603 -579 57 19 133 86 192 169 57 80
142 258 191 400 21 61 38 111 38 112 4 7 99 -33 103 -43 3 -8 -14 -69 -38
-136 -53 -154 -75 -204 -82 -186 -3 7 -5 -1 -4 -18 0 -32 -74 -180 -103 -204
-4 -3 -10 -13 -13 -24 -7 -18 -8 -18 -27 -1 -15 14 -20 15 -20 4 -1 -10 -5 -9
-15 4 -7 11 -11 26 -8 35 4 14 3 14 -5 3 -11 -15 -5 -42 12 -53 19 -12 -16
-38 -53 -39 -20 0 -30 -3 -23 -6 19 -8 14 -22 -7 -16 -10 3 -22 0 -25 -6 -10
-15 -26 -14 -26 3 0 7 9 16 21 19 12 3 18 10 15 16 -4 5 -2 12 4 16 5 3 10 1
10 -4 0 -6 8 -11 17 -11 15 0 14 2 -3 15 -16 12 -17 14 -2 15 9 0 25 17 35 38
10 20 23 36 29 35 6 -1 11 5 11 14 0 11 -10 4 -29 -18 -50 -60 -112 -118 -140
-130 -15 -6 -26 -14 -24 -18 5 -8 1 -8 -114 -17 -82 -6 -87 -5 -144 25 -68 36
-66 36 -67 14 0 -15 -2 -15 -9 2 -8 19 -8 19 -18 -5 l-11 -25 -7 23 c-7 24 -7
24 -46 26 -15 1 -25 -1 -22 -5 2 -4 0 -10 -5 -14 -6 -3 -7 -13 -4 -21 5 -12 7
-13 14 -3 4 8 11 10 16 6 4 -5 1 -12 -7 -17 -11 -7 -20 -4 -32 11 -10 12 -15
25 -12 30 3 5 -1 7 -8 4 -16 -5 -82 83 -81 107 1 10 -2 16 -7 13 -12 -7 -53
62 -44 76 4 7 3 9 -3 6 -10 -6 -69 112 -112 223 -22 58 -64 202 -59 204 18 9
95 34 102 32 4 -1 25 -47 46 -101z m1625 76 c-11 -11 -33 -22 -50 -26 -25 -5
-23 -2 15 18 57 31 59 31 35 8z m-5469 -96 c16 -8 22 -15 14 -15 -18 1 -70 29
-54 30 7 0 25 -7 40 -15z m-85 -20 c-16 -14 -33 -35 -36 -45 -8 -24 -21 -26
-29 -4 -3 8 -2 13 3 10 5 -3 14 1 21 9 7 8 9 15 4 15 -11 0 47 38 59 39 5 1
-5 -10 -22 -24z m169 -13 c0 -13 -12 -22 -22 -16 -10 6 -1 24 13 24 5 0 9 -4
9 -8z m6400 -56 c52 -31 91 -56 86 -56 -17 0 -214 108 -208 114 8 9 14 6 122
-58z m-6380 23 c0 -5 5 -7 12 -3 7 4 8 3 4 -4 -4 -6 -13 -9 -21 -5 -11 4 -13
1 -8 -13 5 -14 3 -16 -12 -10 -11 4 -17 4 -13 1 13 -13 -74 -85 -102 -85 -9 1
-5 7 10 15 14 8 21 14 16 15 -5 0 8 15 29 33 20 17 45 40 54 49 19 19 31 22
31 7z m-133 -16 c0 -7 -4 -13 -9 -13 -4 0 -8 4 -8 9 0 4 -12 6 -26 3 -19 -3
-25 -1 -20 7 10 15 63 10 63 -6z m8163 -57 c0 -2 -8 -10 -17 -17 -16 -13 -17
-12 -4 4 13 16 21 21 21 13z m-1376 -87 c75 -39 136 -72 136 -75 0 -2 -59 25
-131 61 -85 43 -137 64 -150 60 -14 -5 -17 -3 -13 9 3 9 10 16 14 16 4 0 69
-32 144 -71z m-6640 42 c3 -5 0 -11 -8 -14 -15 -6 -26 1 -26 15 0 11 27 10 34
-1z m7896 -25 c0 -2 -7 -7 -16 -10 -8 -3 -12 -2 -9 4 6 10 25 14 25 6z m-34
-28 c5 -7 3 -8 -6 -3 -10 6 -12 4 -7 -9 4 -9 3 -15 -2 -12 -5 3 -12 -1 -15
-10 -3 -8 -2 -13 3 -10 5 3 12 -13 15 -37 3 -23 7 -47 8 -54 1 -6 7 -9 15 -6
7 3 16 -2 19 -11 3 -9 9 -14 13 -12 4 3 20 -4 37 -15 l29 -20 -30 7 c-112 25
-164 105 -114 175 23 33 25 34 35 17z m127 -85 c-5 -11 -8 -12 -13 -2 -5 7 -6
19 -3 26 5 11 8 12 13 2 5 -7 6 -19 3 -26z m-8176 -52 c268 -144 328 -180 312
-186 -14 -5 -306 151 -345 184 -6 5 -34 19 -63 31 -46 20 -67 40 -42 40 5 0
67 -31 138 -69z m598 39 c10 -11 16 -20 13 -20 -3 0 -13 9 -23 20 -10 11 -16
20 -13 20 3 0 13 -9 23 -20z m7750 -71 c28 -19 28 -20 5 -14 -14 4 -38 13 -55
20 -29 13 -29 13 -5 14 14 1 39 -8 55 -20z m-140 -49 c3 -5 1 -10 -4 -10 -6 0
-11 5 -11 10 0 6 2 10 4 10 3 0 8 -4 11 -10z m208 -7 c-3 -7 2 -13 10 -13 25
0 30 -37 10 -77 -14 -30 -45 -54 -158 -124 -77 -49 -146 -86 -153 -84 -7 3
-11 1 -8 -3 2 -4 -59 -47 -137 -95 -78 -48 -170 -105 -204 -127 -52 -33 -63
-37 -63 -23 0 19 38 44 395 263 217 133 286 178 297 194 11 15 10 64 -1 85 -7
13 -6 18 4 18 7 0 11 -6 8 -14z m-3638 -56 c6 -5 3 -6 -8 -3 -11 4 -17 1 -15
-7 2 -6 0 -13 -5 -14 -8 -3 -9 5 -1 30 3 10 9 15 12 10 4 -4 12 -12 17 -16z
m-625 -27 c0 -5 -7 -10 -16 -10 -8 0 -12 5 -9 10 3 6 10 10 16 10 5 0 9 -4 9
-10z m-3344 -26 c58 -30 81 -50 44 -36 -14 5 -31 7 -37 5 -14 -5 -60 24 -55
35 2 4 -7 10 -20 14 -21 6 -22 6 -2 7 12 1 43 -11 70 -25z m3875 -15 c-26 -24
-27 -16 -3 16 9 13 19 19 21 13 2 -5 -6 -18 -18 -29z m19 -14 c-19 -19 -38
-35 -43 -35 -4 0 9 16 30 35 49 45 57 45 13 0z m-557 -2 c-6 -15 -4 -16 8 -6
12 10 17 8 27 -8 9 -14 19 -18 35 -14 20 5 19 4 -3 -9 -25 -15 -35 -12 -75 19
-17 14 -18 17 -5 25 20 13 20 13 13 -7z m3398 -6 c-10 -9 -11 -8 -5 6 3 10 9
15 12 12 3 -3 0 -11 -7 -18z m-6840 -28 c57 -28 354 -189 539 -292 80 -44 174
-96 210 -115 36 -19 85 -47 110 -61 25 -15 83 -47 130 -70 86 -45 128 -70 120
-72 -21 -6 -49 -5 -45 2 3 4 -3 7 -12 7 -10 -1 -81 34 -158 76 -77 43 -223
123 -325 179 -570 310 -650 355 -650 367 0 13 31 5 81 -21z m3864 21 c3 -6 -1
-7 -9 -4 -18 7 -21 14 -7 14 6 0 13 -4 16 -10z m-3606 -39 c50 -25 61 -35 50
-43 -11 -8 -10 -9 4 -4 16 5 50 -10 182 -82 28 -15 91 -49 140 -76 109 -58
118 -66 68 -56 -52 10 -74 20 -67 31 3 5 -5 9 -18 9 -13 0 -59 21 -103 46 -44
25 -105 58 -135 74 -117 59 -185 100 -182 110 1 7 -2 9 -8 5 -5 -3 -22 1 -37
9 l-28 15 35 -2 c19 -1 64 -17 99 -36z m3586 21 c-3 -3 -11 0 -18 7 -9 10 -8
11 6 5 10 -3 15 -9 12 -12z m-288 -7 c0 -8 -4 -12 -9 -9 -5 3 -6 10 -3 15 9
13 12 11 12 -6z m348 -33 c-3 -3 -11 0 -18 7 -9 10 -8 11 6 5 10 -3 15 -9 12
-12z m-30 -12 c-3 -5 -14 -10 -23 -10 -15 0 -15 2 -2 10 20 13 33 13 25 0z
m-3914 -159 c133 -74 184 -110 160 -111 -13 0 -236 122 -324 177 -46 29 -40
52 6 25 18 -11 89 -52 158 -91z m6836 54 c0 -17 -13 -20 -21 -6 -4 5 0 12 6
14 7 3 13 6 14 6 0 1 1 -6 1 -14z m-6072 -5 c3 -6 -1 -7 -9 -4 -18 7 -21 14
-7 14 6 0 13 -4 16 -10z m6030 -10 c-3 -5 -12 -10 -18 -10 -7 0 -6 4 3 10 19
12 23 12 15 0z m-7040 -38 c-3 -3 -11 0 -18 7 -9 10 -8 11 6 5 10 -3 15 -9 12
-12z m1155 -38 c0 -2 -9 0 -20 6 -11 6 -20 13 -20 16 0 2 9 0 20 -6 11 -6 20
-13 20 -16z m5730 -18 c0 -2 -8 -10 -17 -17 -16 -13 -17 -12 -4 4 13 16 21 21
21 13z m-5864 -41 c24 -18 40 -19 25 -1 -9 11 -4 11 23 -2 23 -10 32 -20 28
-30 -4 -12 0 -14 21 -8 16 4 29 1 33 -6 5 -8 2 -9 -9 -5 -10 3 -17 2 -17 -3 0
-9 32 -22 67 -26 36 -4 64 -15 58 -24 -3 -4 7 -11 23 -15 15 -4 21 -10 14 -12
-6 -3 -9 -9 -6 -15 8 -13 -35 9 -59 31 -11 8 -24 16 -30 16 -26 0 -117 60
-112 74 4 10 -1 12 -18 7 -14 -3 -34 2 -52 14 -17 11 -25 20 -19 20 5 0 19 -7
30 -15z m5821 0 c0 -8 -2 -13 -5 -10 -2 2 -11 -3 -19 -11 -8 -8 -19 -11 -25
-8 -7 4 -1 14 13 25 29 23 36 23 36 4z m-6234 -126 c250 -140 317 -180 317
-190 0 -5 -4 -9 -10 -9 -15 0 -463 259 -485 280 -11 11 -16 20 -12 20 4 0 90
-46 190 -101z m6098 48 c-6 -8 -9 -16 -6 -19 6 -6 -196 -128 -213 -128 -7 0
-10 -4 -7 -10 4 -6 -1 -7 -11 -3 -11 4 -15 3 -10 -5 6 -11 -50 -49 -66 -44 -5
1 -8 -2 -8 -7 0 -8 -137 -94 -142 -89 -2 1 -12 -6 -23 -15 -53 -45 -351 -227
-371 -227 -9 0 -13 -4 -10 -8 2 -4 -32 -30 -77 -57 -45 -28 -97 -60 -115 -73
-19 -12 -39 -24 -45 -25 -6 -1 -18 -8 -27 -15 -40 -33 -99 -62 -105 -52 -3 5
2 10 11 10 10 0 14 3 11 7 -4 3 39 34 96 68 56 33 172 105 257 159 85 55 175
111 200 126 25 15 90 56 145 91 55 36 141 89 190 119 50 30 144 89 210 132 66
43 121 78 123 78 3 0 -1 -6 -7 -13z m-6485 -88 c46 -23 86 -45 89 -49 3 -5
-16 -20 -42 -35 -27 -15 -81 -50 -121 -77 l-72 -49 -101 53 c-56 29 -103 58
-106 65 -15 40 144 131 230 133 26 0 67 -14 123 -41z m1148 -10 c-3 -5 1 -6 9
-3 8 3 20 -2 27 -11 7 -8 20 -15 30 -15 10 0 24 -8 31 -17 10 -12 10 -15 1 -9
-7 4 -26 9 -42 11 -16 2 -53 18 -82 35 -29 17 -42 28 -29 25 16 -5 21 -4 17 4
-5 8 0 8 18 0 14 -7 23 -16 20 -20z m6028 -167 c123 -65 256 -137 297 -158
161 -83 191 -161 97 -249 -47 -44 -229 -160 -911 -578 -164 -100 -260 -147
-302 -147 -35 0 -95 29 -456 223 -115 62 -224 126 -244 142 -39 34 -46 69 -20
107 8 13 90 70 182 128 247 154 636 401 855 542 154 99 200 121 242 115 21 -3
133 -56 260 -125z m-7019 92 c18 -9 74 -41 125 -72 72 -43 90 -57 81 -68 -16
-19 -188 -123 -215 -130 -17 -4 -51 9 -121 47 -54 29 -108 57 -120 63 -28 14
-30 26 -3 26 11 0 20 6 20 13 0 11 174 134 193 136 4 1 22 -6 40 -15z m1148 1
c16 -9 27 -21 23 -26 -4 -7 1 -9 15 -4 12 4 21 2 21 -4 0 -12 -20 -14 -44 -5
-9 3 -13 10 -10 16 3 5 0 9 -7 8 -8 -1 -25 1 -37 5 -18 6 -20 10 -10 16 17 11
14 11 49 -6z m-84 -82 c-4 -3 -1 -13 6 -21 9 -13 9 -14 -1 -8 -6 4 -24 14 -40
22 l-27 14 34 0 c19 0 31 -3 28 -7z m247 -28 c11 -8 16 -15 10 -15 -5 0 -18 7
-28 15 -11 8 -16 15 -10 15 5 0 18 -7 28 -15z m-529 -276 c50 -28 119 -67 155
-87 36 -19 77 -43 92 -54 14 -10 28 -18 31 -18 16 0 116 -69 107 -75 -5 -3
-10 -1 -10 5 0 8 -9 10 -25 6 -16 -4 -39 1 -65 14 -21 11 -46 20 -53 20 -8 0
-55 -28 -104 -63 -60 -43 -95 -62 -107 -57 -13 4 8 23 84 75 103 71 109 82 42
84 -13 1 -20 5 -17 11 3 6 -1 7 -9 4 -9 -3 -16 -1 -16 5 0 9 -6 9 -22 0 -16
-9 -23 -9 -26 0 -6 19 -20 12 -15 -7 3 -14 12 -18 31 -16 15 2 19 1 9 -2 -9
-3 -15 -10 -12 -15 9 -14 -11 -11 -24 4 -11 13 -71 12 -71 -2 0 -4 -9 -7 -19
-8 -13 -1 -21 6 -23 18 -4 27 -24 19 -20 -8 3 -24 -7 -30 -24 -13 -7 7 -17 5
-30 -6 -18 -14 -18 -14 6 -3 23 11 24 11 11 -4 -7 -10 -11 -17 -7 -17 15 0 22
-2 34 -12 6 -6 12 -14 12 -19 0 -10 -89 38 -122 66 -13 11 -50 34 -81 50 -49
26 -59 28 -67 15 -12 -19 -13 -8 -1 23 18 46 171 137 230 137 25 0 64 -16 126
-51z m4299 -227 c3 -5 -1 -9 -9 -9 -8 0 -12 4 -9 9 3 4 7 8 9 8 2 0 6 -4 9 -8z
m-48 -38 c-30 -21 -44 -16 -17 7 13 11 27 17 30 13 3 -3 -3 -12 -13 -20z
m-4301 6 c3 -6 -1 -7 -9 -4 -18 7 -21 14 -7 14 6 0 13 -4 16 -10z m1401 -88
c38 -21 99 -57 137 -80 37 -23 70 -42 72 -42 3 0 40 -21 83 -47 42 -26 102
-61 132 -78 255 -147 452 -262 485 -285 22 -15 51 -31 64 -35 18 -5 20 -9 10
-16 -7 -4 -16 -5 -19 -1 -3 4 -11 8 -19 10 -31 7 -101 54 -94 64 3 7 1 8 -5 4
-6 -4 -31 4 -54 17 -24 14 -95 54 -158 90 -63 35 -205 117 -315 182 -110 65
-227 134 -260 153 -86 49 -135 83 -135 93 0 13 1 13 76 -29z m2599 28 c-7 -11
-91 -67 -245 -162 -58 -36 -197 -123 -310 -193 -380 -237 -494 -301 -558 -314
-58 -11 -97 -7 -87 9 3 5 24 11 48 15 23 4 60 15 82 23 41 16 259 147 550 329
183 114 430 256 441 253 4 -1 10 3 13 8 5 8 59 40 69 42 2 0 0 -5 -3 -10z
m-296 -58 c-39 -28 -337 -214 -508 -317 -145 -88 -237 -133 -247 -122 -11 11
725 460 742 453 7 -3 15 3 19 12 6 13 9 14 12 4 3 -8 -5 -21 -18 -30z m-2620
-172 c54 -27 59 -49 22 -82 -36 -32 -185 -82 -219 -73 -34 8 -72 53 -72 85 0
15 9 35 19 44 52 47 183 61 250 26z m-1385 -306 c19 -7 21 -26 2 -22 -13 3
-97 -45 -348 -199 -140 -87 -219 -113 -93 -31 91 59 416 257 422 258 1 0 8 -3
17 -6z m2839 -156 c158 -94 212 -112 303 -104 39 3 80 8 90 11 10 4 6 -2 -11
-12 -23 -13 -51 -18 -116 -18 -80 0 -90 3 -160 39 -115 60 -209 117 -209 128
0 5 -4 7 -9 4 -4 -3 -16 0 -26 8 -17 12 -17 13 1 13 11 0 72 -31 137 -69z
m-2576 -216 c8 -9 12 -11 8 -4 -8 16 3 15 21 -2 17 -17 19 -30 2 -20 -7 4 -8
3 -4 -5 4 -6 12 -9 17 -6 18 12 31 -47 20 -86 -16 -53 -52 -73 -136 -75 -66
-2 -71 0 -102 31 -26 26 -33 41 -33 73 0 45 33 97 57 88 9 -4 11 -2 7 6 -5 7
0 9 14 6 12 -3 21 -3 20 1 -2 20 7 23 48 17 26 -3 53 -14 61 -24z m3300 -104
c18 -23 22 -45 8 -45 -7 0 -11 6 -8 12 2 7 -3 20 -12 29 -9 9 -12 16 -7 16 5
0 14 -6 19 -12z m-123 -27 c-10 -10 -21 -16 -24 -14 -3 3 4 11 14 19 28 20 33
17 10 -5z m76 -91 c0 -5 -10 -10 -22 -9 -22 0 -22 1 -3 9 11 5 21 9 23 9 1 1
2 -3 2 -9z"/>
<path d="M4192 9360 c-13 -6 -42 -22 -65 -38 -23 -16 -109 -66 -192 -112 -237
-132 -367 -213 -389 -243 -20 -27 -21 -42 -24 -378 -2 -234 1 -356 8 -369 6
-12 21 -20 36 -20 15 0 144 67 308 162 154 89 300 172 324 186 23 13 54 39 68
57 l25 33 0 347 c0 313 -2 349 -17 366 -18 20 -45 23 -82 9z m28 -252 c0 -7
-20 -34 -44 -59 -38 -40 -44 -54 -50 -105 -11 -91 -17 -108 -30 -93 -8 8 -8
13 2 16 14 6 16 52 2 87 -7 19 -14 24 -26 19 -13 -5 -16 -2 -11 10 8 21 -8 25
-57 16 -22 -4 -46 -5 -53 -2 -7 3 -13 0 -13 -7 0 -7 -7 -10 -17 -6 -10 4 -14
4 -10 0 4 -5 -17 -19 -47 -33 -67 -32 -110 -84 -135 -165 -31 -103 -33 -128
-12 -169 18 -36 18 -37 0 -37 -10 0 -19 -7 -19 -15 0 -8 -14 -29 -31 -47 l-32
-33 29 39 c18 26 22 38 12 33 -14 -5 -14 -2 -4 18 7 14 11 45 9 71 -8 86 43
221 107 283 57 56 152 95 238 97 69 1 77 4 111 35 32 29 69 56 79 58 1 1 2 -5
2 -11z m-319 -261 c-10 -9 -11 -8 -5 6 3 10 9 15 12 12 3 -3 0 -11 -7 -18z
m69 -58 c0 -10 -6 -19 -14 -19 -9 0 -15 14 -18 41 -4 41 -4 41 14 19 10 -12
18 -31 18 -41z m-133 29 c-3 -8 -6 -5 -6 6 -1 11 2 17 5 13 3 -3 4 -12 1 -19z
m228 -78 c-9 -18 -19 -29 -23 -26 -3 4 3 23 13 42 11 20 21 31 23 26 2 -6 -4
-25 -13 -42z m-105 16 c0 -11 -19 -15 -25 -6 -3 5 1 10 9 10 9 0 16 -2 16 -4z
m-115 -25 c-2 -12 1 -18 8 -16 7 2 27 6 45 9 33 4 33 4 16 -15 -9 -10 -25 -19
-34 -19 -27 0 -54 25 -47 44 9 22 17 20 12 -3z m185 -45 c0 -2 -7 -9 -15 -16
-13 -11 -14 -10 -9 4 5 14 24 23 24 12z m-40 -26 c0 -14 -42 -50 -59 -50 -9 0
-2 12 19 30 40 33 40 33 40 20z m-80 -50 c0 -5 -4 -10 -10 -10 -5 0 -10 5 -10
10 0 6 5 10 10 10 6 0 10 -4 10 -10z m-55 -22 c-16 -6 -34 -14 -40 -18 -5 -5
-23 -6 -40 -2 -27 5 -25 7 25 17 70 15 94 16 55 3z"/>
<path d="M8921 6044 c0 -11 3 -14 6 -6 3 7 2 16 -1 19 -3 4 -6 -2 -5 -13z"/>
<path d="M9071 6044 c0 -11 3 -14 6 -6 3 7 2 16 -1 19 -3 4 -6 -2 -5 -13z"/>
<path d="M8900 5988 c0 -9 5 -20 10 -23 13 -8 13 5 0 25 -8 13 -10 13 -10 -2z"/>
<path d="M3140 9101 c-33 -8 -66 -72 -51 -99 23 -42 71 -30 104 25 28 50 2 87
-53 74z"/>
<path d="M6730 7870 c-13 -8 -13 -10 2 -10 9 0 20 5 23 10 8 13 -5 13 -25 0z"/>
<path d="M6767 7863 c-12 -12 -7 -22 8 -17 8 4 15 10 15 15 0 11 -14 12 -23 2z"/>
<path d="M6420 7800 c0 -5 5 -10 10 -10 6 0 10 5 10 10 0 6 -4 10 -10 10 -5 0
-10 -4 -10 -10z"/>
<path d="M6650 7741 c0 -6 4 -13 10 -16 6 -3 7 1 4 9 -7 18 -14 21 -14 7z"/>
<path d="M6545 7731 c-3 -5 -1 -12 5 -16 12 -7 30 2 30 16 0 12 -27 12 -35 0z"/>
<path d="M6590 7700 c0 -5 5 -10 10 -10 6 0 10 5 10 10 0 6 -4 10 -10 10 -5 0
-10 -4 -10 -10z"/>
<path d="M4646 8734 c-32 -31 -38 -54 -26 -85 22 -51 96 -32 118 30 20 56 -50
98 -92 55z"/>
<path d="M2549 8631 c-91 -55 -280 -164 -420 -242 -140 -78 -283 -159 -319
-179 -36 -20 -128 -72 -205 -115 -390 -217 -434 -247 -454 -314 -8 -27 -11
-238 -11 -718 0 -646 1 -681 18 -696 27 -25 39 -22 127 31 44 26 116 68 160
92 44 24 204 114 355 200 151 86 311 176 355 200 193 105 552 313 573 332 12
12 26 38 32 57 6 22 10 301 10 728 l0 692 -22 15 c-12 9 -25 16 -28 16 -3 0
-80 -45 -171 -99z m49 -88 c-3 -18 -100 -72 -128 -72 -18 0 30 42 80 69 44 24
52 24 48 3z m-28 -151 c0 -11 -17 -28 -41 -41 -23 -13 -56 -37 -74 -53 -39
-34 -58 -20 -28 20 22 31 109 92 129 92 8 0 14 -8 14 -18z m0 -116 c0 -8 -22
-28 -49 -45 -26 -17 -56 -40 -66 -51 -25 -28 -37 -25 -33 7 5 47 148 133 148
89z m-45 -167 c-10 -74 3 -199 21 -199 18 0 18 -29 0 -52 -18 -24 -19 -23 -40
17 -15 28 -17 41 -9 72 10 40 6 113 -7 113 -4 0 -15 -30 -24 -66 -9 -37 -21
-73 -26 -80 -6 -7 -33 -15 -59 -19 -63 -9 -97 -44 -147 -153 -31 -70 -36 -87
-26 -103 14 -22 16 -65 3 -73 -21 -13 -36 28 -34 97 3 85 8 103 33 110 14 3
21 17 26 46 9 55 79 116 123 106 19 -4 32 -1 41 10 27 32 80 150 80 176 0 25
20 48 43 49 5 0 6 -23 2 -51z m-555 -175 c0 -27 8 -29 45 -12 38 17 50 0 31
-46 -18 -44 -15 -55 24 -81 35 -24 37 -34 10 -77 -24 -39 -26 -71 -5 -88 22
-19 19 -32 -17 -62 -29 -23 -33 -33 -33 -73 0 -45 -2 -48 -35 -59 -25 -8 -38
-19 -45 -41 -16 -49 -24 -55 -70 -55 -40 0 -45 -3 -62 -37 -23 -47 -39 -52
-48 -14 -8 37 -11 37 -70 9 -50 -24 -65 -18 -65 29 0 12 -4 33 -10 47 -8 22
-13 24 -33 17 -38 -15 -51 0 -43 51 6 37 3 50 -19 82 -14 20 -25 39 -25 41 0
2 13 19 29 38 37 42 50 84 27 93 -27 10 -19 45 13 57 31 12 61 54 70 100 8 39
34 56 60 40 16 -10 22 -8 39 10 10 12 26 36 33 52 19 40 55 46 68 11 12 -30
38 -26 73 11 l23 24 17 -21 c10 -12 18 -33 18 -46z m-548 -261 c-3 -152 -8
-230 -16 -235 -8 -5 -12 54 -14 214 -2 212 2 248 28 248 4 0 5 -102 2 -227z
m1039 160 l32 -27 -6 -83 c-6 -94 -18 -120 -77 -159 l-40 -27 0 -168 c0 -104
-4 -169 -10 -169 -18 0 -23 52 -17 176 8 146 3 181 -27 190 -11 4 -24 12 -28
18 -4 6 -8 -73 -8 -175 0 -213 6 -196 -105 -263 -69 -41 -75 -43 -75 -17 0 12
20 29 60 50 88 47 90 50 90 146 l0 83 -61 -40 c-54 -36 -89 -81 -75 -96 3 -3
30 14 61 38 55 42 71 47 60 18 -6 -14 -128 -118 -140 -118 -10 0 -5 101 6 121
6 11 42 40 80 65 l69 45 0 57 c0 85 18 221 36 269 20 55 65 88 126 92 9 0 31
-11 49 -26z m99 -18 c16 -19 7 -92 -14 -113 -22 -23 -25 -14 -16 46 5 29 6 60
3 68 -7 19 11 18 27 -1z m-1141 -492 c1 -24 -3 -43 -9 -43 -5 0 -10 -7 -10
-16 0 -8 5 -12 10 -9 6 4 10 -8 10 -28 0 -23 -5 -34 -15 -34 -12 0 -15 15 -15
72 0 40 3 87 7 106 5 28 7 30 14 14 4 -11 8 -39 8 -62z m1191 -32 c0 -5 -12
-18 -27 -29 -25 -17 -306 -178 -593 -338 -52 -29 -174 -97 -271 -151 -273
-154 -286 -160 -306 -147 -15 10 -18 28 -19 130 -1 65 1 101 3 80 3 -22 7 -35
11 -29 4 6 8 -25 10 -70 1 -44 5 -83 8 -86 3 -3 22 4 42 16 20 11 132 74 247
138 116 65 257 144 314 176 58 33 105 59 106 59 2 0 46 25 100 55 53 30 100
55 103 55 4 1 61 34 127 75 117 72 145 85 145 66z m-680 -106 c0 -2 -17 -13
-37 -24 -61 -31 -85 -62 -81 -107 3 -35 6 -39 28 -37 25 3 25 2 -3 -13 -43
-24 -57 -13 -57 46 0 41 5 55 28 79 15 15 41 35 57 44 29 16 65 22 65 12z
m-511 -54 c-1 -32 -6 -52 -15 -55 -11 -4 -14 6 -14 43 0 43 4 52 27 60 2 1 2
-21 2 -48z m-9 -116 c5 19 7 -1 6 -52 0 -45 -4 -74 -7 -65 -6 15 -7 15 -11 -3
-3 -11 -5 18 -5 65 0 47 3 72 5 55 l5 -30 7 30z"/>
<path d="M1879 7905 c-3 -2 -22 -6 -43 -9 -42 -5 -131 -59 -147 -88 -6 -11
-13 -17 -16 -14 -3 3 -23 -30 -45 -73 -28 -56 -41 -97 -45 -139 -7 -80 -2 -97
52 -162 44 -54 45 -54 102 -55 39 -1 68 4 87 16 16 10 34 15 41 13 18 -7 100
94 131 161 40 86 44 184 12 245 -14 25 -40 56 -59 68 -19 13 -33 28 -31 33 2
9 -31 13 -39 4z m1 -140 c13 -14 29 -25 35 -25 8 0 11 -25 11 -77 -2 -80 -10
-108 -28 -97 -5 3 -22 -5 -36 -18 -43 -39 -114 -75 -119 -60 -3 7 -20 19 -39
27 l-33 14 5 68 c7 85 10 94 27 87 9 -3 22 8 35 30 19 31 80 74 108 76 6 0 21
-11 34 -25z"/>
<path d="M1772 7676 c-30 -32 -42 -54 -42 -75 0 -39 16 -48 43 -23 29 26 61
42 85 42 29 0 35 28 14 64 -27 46 -52 44 -100 -8z"/>
<path d="M1402 7780 c0 -14 2 -19 5 -12 2 6 2 18 0 25 -3 6 -5 1 -5 -13z"/>
<path d="M2353 7805 c-88 -62 -80 -215 11 -215 81 0 137 148 79 212 -20 22
-61 23 -90 3z"/>
<path d="M3102 8594 c-114 -58 -119 -239 -6 -221 45 7 81 39 105 92 23 50 24
87 2 113 -25 29 -62 35 -101 16z m66 -46 c32 -32 2 -106 -57 -137 -31 -17 -61
9 -61 55 0 65 80 120 118 82z"/>
<path d="M8070 8400 c-8 -5 -10 -10 -5 -10 6 0 17 5 25 10 8 5 11 10 5 10 -5
0 -17 -5 -25 -10z"/>
<path d="M3047 4351 c3 -12 9 -21 14 -21 14 0 11 16 -5 29 -12 10 -13 8 -9 -8z"/>
<path d="M7032 7981 c-10 -6 -6 -11 17 -19 18 -7 29 -7 26 -2 -4 6 -14 10 -23
11 -14 0 -13 2 3 9 13 6 15 9 5 9 -8 0 -21 -3 -28 -8z"/>
<path d="M7081 7924 c0 -11 3 -14 6 -6 3 7 2 16 -1 19 -3 4 -6 -2 -5 -13z"/>
<path d="M3760 6519 c-105 -11 -225 -41 -295 -73 -108 -49 -163 -141 -152
-257 10 -118 91 -240 298 -453 l125 -130 39 65 c84 138 223 321 348 457 l69
74 -6 -54 c-19 -187 -12 -166 -82 -242 -67 -71 -206 -261 -250 -339 l-25 -45
63 -54 c81 -70 320 -249 325 -244 3 2 -1 91 -8 198 -19 306 -4 615 47 931 14
87 23 162 19 165 -10 11 -419 11 -515 1z m-83 -315 c-3 -3 -12 -4 -19 -1 -8 3
-5 6 6 6 11 1 17 -2 13 -5z m-105 -11 c-6 -2 -9 -10 -5 -16 4 -7 0 -8 -11 -4
-10 4 -23 7 -29 8 -17 1 25 18 43 18 10 -1 11 -2 2 -6z m-40 -23 c6 0 1 -9
-12 -20 -29 -25 -33 -25 -20 -1 5 11 7 21 2 24 -4 2 -1 2 6 0 8 -1 18 -3 24
-3z m-56 -27 c-10 -10 -19 5 -10 18 6 11 8 11 12 0 2 -7 1 -15 -2 -18z m-52
-15 c-19 -21 -19 -21 1 -14 14 5 17 4 9 -4 -6 -6 -18 -8 -27 -4 -15 5 -14 8 6
25 30 25 34 24 11 -3z"/>
<path d="M3705 5278 c-53 -113 -135 -317 -135 -337 0 -19 527 -91 665 -91 l31
0 -16 105 -15 104 -105 69 c-58 38 -162 114 -232 170 -71 56 -129 102 -131
102 -2 0 -30 -55 -62 -122z"/>
<path d="M4390 4901 c0 -47 8 -71 24 -72 6 0 30 -24 54 -52 l43 -52 -46 -3
c-41 -3 -45 -5 -40 -25 2 -12 9 -51 15 -87 16 -99 40 -204 50 -220 9 -15 96
21 339 144 l125 63 -105 58 c-146 81 -291 169 -381 232 l-78 53 0 -39z"/>
<path d="M5745 4879 c-83 -55 -313 -188 -412 -238 -46 -23 -83 -43 -83 -45 0
-6 195 -107 240 -126 19 -7 75 -33 124 -57 49 -24 92 -43 96 -43 13 0 19 26
45 179 32 188 32 180 -7 174 l-33 -5 41 39 c33 32 43 49 48 88 4 26 10 54 13
61 8 22 -8 16 -72 -27z"/>
<path d="M6691 4203 c-1 -6 -4 -20 -7 -30 -5 -17 -5 -17 6 0 6 10 9 23 6 30
-3 9 -5 9 -5 0z"/>
<path d="M6619 4083 c-13 -17 -13 -17 6 -3 11 8 22 16 24 17 2 2 0 3 -6 3 -6
0 -17 -8 -24 -17z"/>
<path d="M6430 4076 c0 -2 13 -6 29 -8 17 -2 28 -1 25 4 -5 8 -54 12 -54 4z"/>
<path d="M6557 4039 c7 -7 15 -10 18 -7 3 3 -2 9 -12 12 -14 6 -15 5 -6 -5z"/>
<path d="M7018 7472 c-7 -46 3 -58 18 -22 14 31 11 50 -5 50 -5 0 -11 -13 -13
-28z"/>
<path d="M7313 7363 c-7 -2 -13 -11 -13 -18 0 -7 6 -15 13 -18 9 -3 7 -9 -5
-24 -19 -20 -24 -43 -10 -43 12 0 53 90 47 101 -7 10 -13 10 -32 2z"/>
<path d="M6271 7004 c-24 -13 -54 -24 -67 -24 -13 0 -25 -4 -29 -10 -3 -5 -13
-7 -23 -4 -14 5 -15 4 -2 -4 23 -16 93 2 134 33 20 15 36 29 36 31 0 5 1 6
-49 -22z"/>
<path d="M7525 7240 c-3 -5 -4 -10 0 -10 3 0 0 -10 -6 -22 -12 -22 -11 -22 14
2 14 13 23 28 21 32 -7 11 -22 10 -29 -2z"/>
<path d="M9350 7266 c0 -2 8 -10 18 -17 15 -13 16 -12 3 4 -13 16 -21 21 -21
13z"/>
<path d="M9441 7213 c7 -12 15 -20 18 -17 3 2 -3 12 -13 22 -17 16 -18 16 -5
-5z"/>
<path d="M3978 6833 c7 -3 16 -2 19 1 4 3 -2 6 -13 5 -11 0 -14 -3 -6 -6z"/>
<path d="M7811 7103 c0 -6 -4 -20 -7 -30 -5 -14 -4 -15 5 -7 7 7 11 20 8 30
-3 11 -5 14 -6 7z"/>
<path d="M7888 6995 c-5 -42 13 -47 31 -9 12 28 7 44 -13 44 -8 0 -16 -15 -18
-35z"/>
<path d="M8160 5948 c0 -10 -5 -18 -11 -18 -8 0 -7 -5 1 -16 11 -12 11 -15 0
-12 -12 3 -15 -13 -11 -52 3 -25 19 -6 31 34 9 32 9 49 1 63 -10 17 -10 17
-11 1z"/>
<path d="M8253 5878 c-6 -7 -13 -28 -16 -45 -5 -27 -3 -33 11 -33 24 0 44 35
36 65 -7 28 -16 31 -31 13z"/>
<path d="M673 5815 c-7 -8 -9 -16 -5 -19 4 -3 13 4 20 15 14 22 3 25 -15 4z"/>
<path d="M683 5791 c-28 -23 -31 -82 -7 -102 13 -11 20 -11 42 2 40 22 59 61
44 93 -14 31 -47 34 -79 7z"/>
<path d="M4174 4348 l-19 -23 23 19 c21 18 27 26 19 26 -2 0 -12 -10 -23 -22z"/>
<path d="M4130 4320 c-9 -6 -10 -10 -3 -10 6 0 15 5 18 10 8 12 4 12 -15 0z"/>
<path d="M4045 4300 c-43 -4 -55 -8 -42 -14 26 -12 128 4 106 17 -2 1 -31 0
-64 -3z"/>
<path d="M2620 3063 c0 -20 13 -28 465 -276 778 -427 845 -461 845 -426 -1 14
-31 32 -410 239 -118 64 -325 177 -460 251 -295 161 -422 228 -432 229 -5 0
-8 -8 -8 -17z"/>
<path d="M5561 3854 c0 -11 3 -14 6 -6 3 7 2 16 -1 19 -3 4 -6 -2 -5 -13z"/>
<path d="M5526 3773 c-6 -14 -5 -15 5 -6 7 7 10 15 7 18 -3 3 -9 -2 -12 -12z"/>
<path d="M4700 3711 c5 -11 15 -23 21 -27 6 -3 3 5 -6 20 -20 30 -30 35 -15 7z"/>
<path d="M5472 3670 c-7 -11 -9 -20 -4 -20 4 0 13 9 20 20 7 11 9 20 4 20 -4
0 -13 -9 -20 -20z"/>
<path d="M4738 3654 c6 -12 9 -24 6 -27 -3 -3 13 -23 35 -46 22 -23 37 -41 33
-41 -4 0 0 -5 8 -10 13 -9 13 -11 0 -21 -13 -9 -12 -10 3 -5 12 4 17 2 14 -6
-2 -7 -11 -12 -20 -12 -9 1 -14 -2 -11 -8 3 -5 14 -6 24 -3 12 4 26 -2 38 -15
13 -14 22 -18 27 -11 3 6 12 8 18 4 7 -4 6 1 -2 11 -8 9 -20 15 -28 12 -8 -3
-11 -1 -8 4 3 5 -2 18 -12 28 -10 11 -38 41 -63 66 -24 26 -45 55 -46 63 -2 9
-8 21 -15 27 -9 8 -9 6 -1 -10z"/>
<path d="M5446 3623 c-6 -14 -5 -15 5 -6 7 7 10 15 7 18 -3 3 -9 -2 -12 -12z"/>
<path d="M5476 3505 c4 -8 8 -15 10 -15 2 0 4 7 4 15 0 8 -4 15 -10 15 -5 0
-7 -7 -4 -15z"/>
<path d="M4781 3474 c0 -11 3 -14 6 -6 3 7 2 16 -1 19 -3 4 -6 -2 -5 -13z"/>
<path d="M5390 3469 c0 -5 5 -7 10 -4 6 3 10 8 10 11 0 2 -4 4 -10 4 -5 0 -10
-5 -10 -11z"/>
<path d="M4851 3367 c2 -1 13 -9 24 -17 19 -14 19 -14 6 3 -7 9 -18 17 -24 17
-6 0 -8 -1 -6 -3z"/>
<path d="M1974 3135 c22 -17 40 -20 32 -6 -3 5 -16 11 -28 14 -22 6 -22 5 -4
-8z"/>
<path d="M8184 2760 c-41 -9 -127 -57 -171 -95 l-37 -32 45 -25 c24 -14 132
-72 239 -129 181 -97 199 -104 251 -104 47 1 66 7 125 42 38 22 78 51 89 63
19 22 19 22 -5 40 -14 11 -86 53 -160 93 -259 143 -307 162 -376 147z"/>
<path d="M7796 2493 c-4 -9 -1 -22 6 -30 17 -17 199 -113 213 -113 10 0 99 55
149 92 14 10 -13 38 -36 38 -11 0 -46 -12 -78 -26 l-58 -26 -78 41 c-86 45
-109 50 -118 24z"/>
<path d="M7692 2400 c-12 -5 -48 -27 -80 -48 -49 -33 -61 -37 -83 -29 -59 22
-80 -19 -26 -50 59 -35 65 -35 105 1 20 18 61 48 90 66 53 32 65 53 36 64 -9
3 -16 6 -17 5 -1 0 -12 -4 -25 -9z"/>
<path d="M8694 2391 c1 -10 -7 -16 -19 -16 -11 0 -18 -5 -16 -10 2 -6 6 -16 9
-23 7 -21 -9 -29 -19 -9 -11 19 -46 22 -69 6 -11 -8 -6 -9 20 -5 l35 5 -35
-11 c-19 -7 -41 -18 -48 -25 -7 -7 -22 -13 -32 -13 -10 0 -37 -16 -60 -35 -39
-33 -68 -46 -56 -26 3 5 -2 8 -12 7 -9 0 -16 5 -14 12 1 8 -2 11 -8 7 -5 -3
-26 1 -45 11 -33 15 -34 17 -18 31 16 13 16 13 -4 3 -18 -8 -32 -6 -65 9 -94
42 -158 51 -158 22 0 -20 55 -59 212 -146 86 -47 150 -99 118 -95 -27 4 -37 0
-86 -33 -27 -18 -68 -44 -91 -57 l-42 -23 -62 32 c-61 33 -89 32 -76 -3 8 -19
121 -96 143 -96 19 0 75 31 167 92 32 21 62 36 67 33 4 -3 13 1 19 9 9 11 8
17 -4 29 -8 9 -15 20 -15 26 0 10 29 16 53 12 5 -1 6 3 3 8 -9 14 19 32 38 25
10 -4 15 -13 12 -21 -4 -10 0 -13 17 -11 12 2 21 9 19 16 -2 9 5 12 20 8 13
-3 17 -3 11 0 -20 9 -15 26 5 20 22 -7 102 47 102 68 0 15 21 26 48 26 9 0 31
10 47 21 17 12 22 19 13 16 -9 -3 -19 0 -21 8 -7 17 1 25 27 25 19 0 19 1 -4
17 -14 10 -29 17 -34 15 -4 -1 -18 8 -30 21 -27 31 -64 41 -62 18z m6 -41 c0
-5 -4 -10 -10 -10 -5 0 -10 5 -10 10 0 6 5 10 10 10 6 0 10 -4 10 -10z m82
-82 c-9 -9 -15 -9 -24 0 -9 9 -7 12 12 12 19 0 21 -3 12 -12z m-222 -50 c0 -6
-6 -5 -15 2 -8 7 -15 14 -15 16 0 2 7 1 15 -2 8 -4 15 -11 15 -16z m-70 -12
c0 -3 -4 -8 -10 -11 -5 -3 -10 -1 -10 4 0 6 5 11 10 11 6 0 10 -2 10 -4z"/>
<path d="M7889 2302 c-25 -15 -67 -40 -93 -56 l-48 -29 -52 22 c-56 23 -72 25
-80 13 -12 -19 106 -112 141 -112 7 0 209 123 220 134 7 7 -20 56 -31 55 -6
-1 -32 -13 -57 -27z"/>
<path d="M8808 2303 c7 -3 16 -2 19 1 4 3 -2 6 -13 5 -11 0 -14 -3 -6 -6z"/>
<path d="M7381 2167 l-63 -41 -43 16 c-24 9 -46 14 -49 11 -23 -23 20 -77 71
-89 36 -9 232 114 217 137 -12 21 -71 6 -133 -34z"/>
<path d="M8052 2150 c-93 -50 -125 -59 -138 -39 -12 19 -96 51 -108 39 -15
-15 27 -54 108 -101 62 -36 73 -39 91 -28 11 7 49 30 85 52 36 22 75 49 88 60
l22 21 -22 23 c-12 13 -24 23 -27 23 -3 -1 -48 -23 -99 -50z"/>
<path d="M8500 2130 c0 -5 5 -10 10 -10 6 0 10 5 10 10 0 6 -4 10 -10 10 -5 0
-10 -4 -10 -10z"/>
<path d="M7650 2103 c-8 -4 -43 -24 -78 -45 -73 -44 -92 -46 -149 -14 l-41 24
-6 -25 c-4 -13 -4 -28 -1 -34 11 -16 109 -69 130 -69 11 0 69 32 130 71 101
66 108 72 90 85 -19 14 -49 17 -75 7z"/>
<path d="M7810 1964 c-118 -67 -121 -67 -173 -34 -42 26 -48 28 -62 14 -8 -9
-15 -19 -15 -23 0 -13 43 -48 85 -69 61 -32 87 -35 116 -15 100 67 179 124
184 134 10 14 3 19 -36 25 -26 4 -48 -3 -99 -32z"/>
<path d="M7455 1892 c9 -9 180 -106 320 -182 57 -31 106 -48 90 -32 -12 12
-53 35 -260 142 -88 45 -155 78 -150 72z"/>
<path d="M7991 1843 l-94 -56 -54 29 c-46 25 -55 27 -63 14 -5 -8 -10 -22 -10
-30 0 -16 5 -20 91 -68 l55 -32 60 43 c32 24 82 56 111 71 29 16 62 39 74 52
l21 23 -21 -2 c-11 -1 -21 -5 -21 -10 0 -4 -10 -1 -22 7 -12 9 -25 16 -28 16
-3 -1 -47 -26 -99 -57z"/>
<path d="M2054 1161 c-56 -35 -55 -106 1 -141 39 -24 68 -25 115 -2 39 19 56
55 46 95 -14 56 -107 83 -162 48z"/>
</g>
</svg>
